<?xml version="1.0" encoding="UTF-8" standalone="no"?>
<!-- Created with Inkscape (http://www.inkscape.org/) -->

<svg
   width="110.61688mm"
   height="101.19179mm"
   viewBox="0 0 110.61688 101.19179"
   version="1.1"
   id="svg1"
   xml:space="preserve"
   inkscape:version="1.4.3 (0d15f75, 2025-12-25)"
   sodipodi:docname="circuitFinal.svg"
   inkscape:export-filename="circuitFinal.svg"
   inkscape:export-xdpi="96"
   inkscape:export-ydpi="96"
   xmlns:inkscape="http://www.inkscape.org/namespaces/inkscape"
   xmlns:sodipodi="http://sodipodi.sourceforge.net/DTD/sodipodi-0.dtd"
   xmlns="http://www.w3.org/2000/svg"
   xmlns:svg="http://www.w3.org/2000/svg"><sodipodi:namedview
     id="namedview1"
     pagecolor="#ffffff"
     bordercolor="#cccccc"
     borderopacity="1"
     inkscape:showpageshadow="0"
     inkscape:pageopacity="1"
     inkscape:pagecheckerboard="0"
     inkscape:deskcolor="#d1d1d1"
     inkscape:document-units="mm"
     inkscape:zoom="1"
     inkscape:cx="425"
     inkscape:cy="554"
     inkscape:window-width="1920"
     inkscape:window-height="1021"
     inkscape:window-x="1439"
     inkscape:window-y="31"
     inkscape:window-maximized="0"
     inkscape:current-layer="layer11"><inkscape:page
       x="0"
       y="0"
       width="110.61688"
       height="101.19179"
       id="page2"
       margin="0"
       bleed="0" /></sodipodi:namedview><defs
     id="defs1" /><g
     inkscape:groupmode="layer"
     id="layer11"
     inkscape:label="bolts"
     transform="translate(-49.557027,-100.39122)"><g
       id="g55"
       transform="translate(-16.404167,-7.9375)"><path
         style="display:inline;fill:#000000;stroke:none;stroke-width:0.1;stroke-linejoin:round;stroke-dasharray:none"
         d="m 97.94396,199.85922 c 0,0 -1.695614,1.91872 -1.472507,4.50676 0.223107,2.58804 1.918721,3.7482 3.391225,4.3729 1.472512,0.6247 8.210342,1.47251 11.423082,-0.17849 3.21274,-1.65099 3.21274,-3.92668 3.21274,-5.13146 0,-1.20477 -0.27993,-1.54288 -0.27993,-1.54288 0,0 0.33129,-0.34707 0.59949,-1.10432 0.26819,-0.75725 0.29974,-1.76692 0.29974,-1.76692 l 13.2361,-0.17354 0.83619,1.80998 c 0,0 -0.90358,1.149 -0.99283,3.00079 -0.0892,1.85179 1.38327,3.48047 2.65498,4.23903 1.27171,0.75857 2.9227,1.2494 5.08684,1.47251 2.16413,0.22311 4.32827,0.13386 6.09082,-0.11155 1.76254,-0.24542 3.79282,-1.31633 4.72986,-2.96733 0.93705,-1.65099 0.33609,-3.99636 0.28087,-4.22511 -0.0552,-0.22876 -0.20509,-0.48117 -0.1972,-0.63105 0,0 0.3313,-0.7888 0.50483,-1.56182 0.17354,-0.77303 0.22087,-1.56183 0.22087,-1.56183 0,0 4.43365,0.0372 6.57548,-0.47594 2.14182,-0.51314 3.21274,-2.07489 3.7705,-3.48047 0.55777,-1.40557 0.42391,-3.16812 0.42391,-3.16812 l -0.0446,-8.74579 c 0,0 5.06451,-1.82948 7.1394,-4.30596 2.07489,-2.47649 3.10119,-5.24302 3.16812,-6.22469 0.0669,-0.98167 0.0834,-1.40431 0.0834,-1.40431 0,0 1.52295,-0.60365 2.41538,-1.62994 0.89242,-1.02629 1.29402,-2.52111 1.31633,-3.25736 0.0223,-0.73626 -0.13387,-2.43187 -0.35697,-3.07888 -0.22311,-0.64701 -0.44622,-1.0486 -0.44622,-1.0486 0,0 1.30737,-2.5254 1.00763,-4.8918 -0.29975,-2.36641 -1.57761,-4.21221 -2.28753,-4.90635 -0.70992,-0.69415 -1.13587,-0.97812 -1.13587,-0.97812 0,0 -1.18321,-2.68193 -3.43918,-3.78625 -2.25598,-1.10432 -3.7547,-0.89923 -5.11144,-0.69415 -1.35674,0.20509 -3.029,2.01934 -3.029,2.01934 0,0 -0.20535,-0.01 -0.23323,-0.17698 -0.0279,-0.16733 -0.0279,-4.59043 -0.0279,-4.59043 0,0 -0.44621,-2.0972 -1.38326,-2.96732 -0.93705,-0.87012 -3.68126,-1.85179 -3.68126,-1.85179 0,0 -0.75856,-2.47648 -2.40956,-4.03823 -1.65099,-1.56175 -3.85975,-1.85179 -5.10915,-1.82948 -1.24939,0.0223 -7.00555,0.4239 -7.00555,0.4239 l -5.53375,-19.09326 c 0,0 -0.4575,-1.07277 -0.93078,-1.54605 -0.47329,-0.47328 -1.75115,-1.1832 -2.31908,-1.49873 -0.56794,-0.31552 -4.33842,-2.19287 -4.33842,-2.19287 0,0 -0.94656,-0.34707 -1.89312,-0.48905 -0.94656,-0.14199 -2.16132,-0.0315 -3.06055,0.0473 l -18.82083,2.52419 c 0,0 -2.63803,0.51785 -4.065915,2.01267 -1.427884,1.49482 -1.360952,3.63664 -1.338642,4.19441 0.02231,0.55777 0.490836,1.94103 0.490836,1.94103 l 6.049601,16.44675 c 0,0 -3.123658,-0.0315 -4.259533,0.0789 -1.135876,0.11043 -2.587272,0.4575 -3.896683,1.56183 -1.309412,1.10432 -1.887,2.30452 -2.288593,3.55392 -0.401592,1.2494 -0.446214,5.04222 -0.446214,5.04222 l -0.167986,3.90637 c 0,0 -0.855415,-1.05399 -2.476839,-1.44351 -1.570643,-0.37732 -2.997449,0.53639 -2.997449,0.53639 0,0 -1.120099,-0.94658 -1.861573,-1.32521 -0.741474,-0.37862 -1.656485,-0.75725 -3.454954,-0.63104 -1.798469,0.12621 -2.997448,1.04122 -3.596938,1.4514 -0.59949,0.41017 -1.419844,1.48294 -1.893126,2.24019 -0.473281,0.75725 -0.441729,1.02545 -0.536385,1.17532 -0.09466,0.14987 -0.729443,0.61595 -1.633026,1.98805 -0.903584,1.37211 -1.080454,3.27326 -1.112006,4.20405 -0.03155,0.93078 0.252417,2.49261 0.646818,3.28141 0.394401,0.78881 1.009667,1.57761 1.009667,1.57761 0,0 -0.141985,1.54605 -0.03155,2.79236 0.110432,1.24631 0.583713,2.27175 1.056995,2.93434 0.473281,0.6626 1.482948,1.48295 1.735365,1.62494 0.252416,0.14198 0.773026,0.37862 0.773026,0.37862 0,0 0.04733,1.37252 1.072771,3.64427 1.025443,2.27175 2.524167,3.86513 3.707371,5.12721 1.183203,1.26209 3.123657,2.28753 4.748589,2.98168 1.624933,0.69414 3.31297,0.80457 3.31297,0.80457 l 0.11832,0.0158 c 0,0 -0.339185,1.94045 -0.181424,3.67582 0.15776,1.73536 0.978114,3.07633 1.719589,4.02289 0.741474,0.94656 2.19287,1.92468 3.281417,2.28753 1.088547,0.36285 3.54961,2.3033 3.54961,2.3033 0,0 -0.567937,1.05699 -0.425953,2.39796 0.141984,1.34096 0.463776,2.10649 0.463776,2.10649 z"
         id="path4823"
         sodipodi:nodetypes="csssscsccccssssscscssccsscssscsscsscscscssccsscsccssccsssccsc" /><path
         style="display:inline;fill:#ffffff;fill-opacity:1;stroke:none;stroke-width:0.1;stroke-linejoin:round;stroke-dasharray:none"
         d="m 103.63319,186.53974 c 0,0 0.87011,-3.70358 2.67728,-5.73385 1.80717,-2.03028 4.70756,-3.65896 7.69719,-4.39521 2.98964,-0.73625 7.38484,-0.78087 10.08444,-0.11155 2.69959,0.66932 4.70755,1.91872 6.64858,3.92668 1.94103,2.00796 3.55856,5.72269 3.55856,5.72269 l 12.01431,-0.12271 v -11.77657 c 0,0 -0.0302,-0.23664 -0.40091,-0.29186 -0.37074,-0.0552 -53.607001,1.73537 -53.607001,1.73537 0,0 -0.394401,0.0473 -0.631042,0.28396 -0.236641,0.23665 -0.205087,0.83614 -0.205087,0.83614 l -0.205089,9.56028 c 0,0 0.0079,0.35496 0.04733,0.4575 0.03944,0.10255 0.149871,0.16565 0.149871,0.16565 z"
         id="path4829" /><path
         style="display:inline;fill:#ffffff;fill-opacity:1;stroke:none;stroke-width:0.1;stroke-linejoin:round;stroke-dasharray:none"
         d="m 146.70373,171.99403 c 0,0 -0.20612,-0.16262 -0.52404,-0.17935 -0.31793,-0.0168 -1.51713,-0.0112 -1.51713,-0.0112 l -50.890701,1.81833 -1.7737,0.0558 c 0,0 -0.0502,-0.039 -0.05578,-0.17848 -0.0056,-0.13944 1.427885,-31.33538 1.427885,-31.33538 0,0 0.156175,-1.58406 0.937048,-2.45417 0.780875,-0.87012 1.450197,-1.47251 2.900391,-1.69562 1.450195,-0.2231 4.149797,-0.29004 4.149797,-0.29004 0,0 0.56892,-0.0335 0.79203,-0.10039 0.2231,-0.0669 0.71394,-0.22311 1.05975,0.41274 0.34582,0.63586 0.60239,1.74024 0.60239,1.74024 l 0.31023,7.95037 5.80558,1.5145 14.76638,-0.75725 6.49973,-0.88346 2.08244,-4.22798 -0.39352,-5.091 0.18964,-1.51712 c 0,0 0.0446,-0.34582 0.33466,-0.73626 0.29004,-0.39044 0.61355,-0.37928 1.13785,-0.41275 0.5243,-0.0335 10.5418,-0.70278 10.5418,-0.70278 0,0 0.85896,-0.0892 1.59522,0.41275 0.73625,0.50198 0.89242,0.91473 0.92589,1.3721 0.0335,0.45737 -0.85423,35.31086 -0.85423,35.31086 z"
         id="path4830"
         sodipodi:nodetypes="cccccscsscssccccccccsscsscc" /><path
         style="display:inline;fill:#ffffff;fill-opacity:1;stroke:none;stroke-width:0.1;stroke-linejoin:round;stroke-dasharray:none"
         d="m 127.2338,145.01341 c 0,0 1.34097,0.0947 1.79847,-0.3313 0.45751,-0.42595 0.59949,-0.82035 0.70993,-1.37252 0.11043,-0.55216 0.33129,-1.78269 0.48905,-2.2402 0.15776,-0.4575 0.15776,-1.19897 0.15776,-1.19897 l -2.00356,0.18931 c 0,0 -0.1262,0.0473 -0.15776,0.18931 -0.0315,0.14199 -0.32841,2.35805 -0.46103,3.02603 -0.0953,0.47995 -0.53286,1.73834 -0.53286,1.73834 z"
         id="path4831"
         sodipodi:nodetypes="ccsscccsc" /><path
         style="display:inline;fill:#ffffff;fill-opacity:1;stroke:none;stroke-width:0.1;stroke-linejoin:round;stroke-dasharray:none"
         d="m 127.85145,125.07377 c 0,0 -0.11389,-0.44893 -0.17113,-0.67471 -0.0566,-0.22311 -2.89179,-11.22171 -2.89179,-11.22171 0,0 -0.27251,-1.27805 -1.04224,-2.03661 -0.76971,-0.75857 -2.17529,-0.78088 -2.74421,-0.75857 -0.56892,0.0223 -20.20234,2.5992 -20.20234,2.5992 0,0 -1.137841,0.18964 -2.063735,1.00398 -0.925893,0.81434 -0.937051,2.17529 -0.937051,2.17529 0,0 0.167331,0.36813 0.836653,0.46853 0.669321,0.1004 0.914738,-0.11156 0.914738,-0.11156 0,0 -0.05578,-0.88127 0.356971,-1.34979 0.412744,-0.46853 0.747404,-0.78088 1.494814,-0.90359 0.74741,-0.1227 18.64059,-2.46533 18.64059,-2.46533 0,0 0.68048,-0.0781 1.23824,0.0669 0.55777,0.14503 1.11554,0.59124 1.58406,1.28287 0.46853,0.69163 0.66933,2.01912 0.66933,2.01912 l 2.55457,9.42627 c 0,0 0.0335,0.0614 0.16733,0.11155 0.13386,0.0502 1.59521,0.36813 1.59521,0.36813 z"
         id="path4832"
         sodipodi:nodetypes="cscsscscscsscssccccc" /><path
         style="display:inline;fill:#ffffff;fill-opacity:1;stroke:none;stroke-width:0.1;stroke-linejoin:round;stroke-dasharray:none"
         d="m 89.153544,155.26014 c 0.736253,-1.22709 1.160158,-2.83346 0.446214,-3.88206 -0.713941,-1.04861 -1.98565,-1.22709 -2.878079,-1.00398 -0.892429,0.2231 -1.360953,1.27171 -1.717924,2.36493 -0.35697,1.09323 -0.803185,2.43187 -0.0223,3.30198 0.780873,0.87012 1.740233,0.87012 2.387243,0.80319 0.647012,-0.0669 1.784855,-1.58406 1.784855,-1.58406 z"
         id="path4833" /><path
         style="display:inline;fill:#ffffff;fill-opacity:1;stroke:none;stroke-width:0.1;stroke-linejoin:round;stroke-dasharray:none"
         d="m 82.951171,153.80994 c 0,0 0.825497,-1.09322 0.98167,-2.43186 0.156176,-1.33864 -1.026292,-2.56573 -3.502779,-2.54342 -2.476487,0.0223 -3.926681,2.23107 -4.105169,2.78884 -0.178485,0.55776 -0.03983,0.93086 -0.252804,1.24638 -0.212976,0.31552 -0.757251,0.10254 -2.058773,2.05088 -1.301525,1.94834 -0.702035,5.96335 1.522388,7.5094 2.224421,1.54605 2.729257,1.64071 4.448845,1.86157 1.719588,0.22087 3.249866,-0.86768 3.675819,-1.2463 0.425953,-0.37863 0.741473,-1.37252 0.993891,-1.56183 0.252415,-0.18932 0.425953,-0.22875 0.87557,-0.22875 0.449617,0 1.333077,-0.27609 1.924677,-1.26209 0.5916,-0.986 0.394401,-1.60915 0.394401,-1.60915 0,0 -0.95445,0.11043 -1.901012,-0.0473 -0.946563,-0.15776 -1.451396,-0.63893 -1.451396,-0.63893 0,0 -0.06311,2.71348 -1.893126,3.51805 -1.830022,0.80458 -3.297195,0.50484 -4.527727,0.12621 -1.230529,-0.37862 -1.853684,-1.41984 -1.853684,-1.41984 0,0 -0.228753,-0.29975 -0.02365,-0.63893 0.205089,-0.33919 0.686258,-0.26031 1.151652,-0.0473 0.465394,0.21298 1.514499,0.85191 2.918569,0.95445 1.404067,0.10255 1.972005,-0.93078 2.42951,-1.83791 0.457507,-0.90712 0.189312,-2.16132 -0.44173,-2.80025 -0.631042,-0.63892 -1.522389,-1.31729 -2.058773,-1.63282 -0.536385,-0.31552 -0.496946,-0.67837 -0.386514,-0.84401 0.110434,-0.16565 0.583716,-0.36285 1.214757,-0.16565 0.631042,0.1972 1.104324,0.37862 1.404067,0.54427 0.299744,0.16565 0.521335,0.35635 0.521335,0.35635 z"
         id="path4834" /><path
         style="display:inline;fill:#ffffff;fill-opacity:1;stroke:none;stroke-width:0.1;stroke-linejoin:round;stroke-dasharray:none"
         d="m 75.346392,164.71769 c 0,0 2.240198,1.5776 5.458511,1.48295 3.218314,-0.0947 5.600496,-2.39796 5.600496,-2.39796 0,0 0.362849,2.47684 -0.962337,3.31297 -1.32519,0.83612 -2.476842,1.67226 -5.363856,1.54605 -2.887017,-0.12621 -3.62849,-0.88346 -4.338412,-1.76692 -0.709923,-0.88346 -0.394402,-2.17709 -0.394402,-2.17709 z"
         id="path4836" /><path
         style="display:inline;fill:#ffffff;fill-opacity:1;stroke:none;stroke-width:0.1;stroke-linejoin:round;stroke-dasharray:none"
         d="m 89.923457,170.88612 0.141984,-3.48651 -1.719588,0.0473 c 0,0 -0.141986,0.0158 -0.268192,0.23664 -0.126209,0.22087 -0.44173,0.91501 -0.899237,1.30942 -0.457504,0.3944 -0.545989,0.34519 -0.596186,0.50136 -0.0502,0.15618 0.45737,0.92032 1.137844,1.1769 0.680476,0.25657 2.203375,0.21486 2.203375,0.21486 z"
         id="path4837" /><path
         style="display:inline;fill:#ffffff;fill-opacity:1;stroke:none;stroke-width:0.1;stroke-linejoin:round;stroke-dasharray:none"
         d="m 153.89919,154.52389 c 0.80318,1.18246 1.07091,1.71792 2.45418,2.03027 1.38326,0.31235 2.14182,-0.82549 2.47648,-1.60637 0.33466,-0.78088 -0.49083,-2.96732 -1.36095,-4.21672 -0.87012,-1.2494 -2.298,-0.84781 -2.94501,-0.49084 -0.64701,0.35697 -1.02629,0.75857 -1.2494,1.53944 -0.22311,0.78087 0.6247,2.74422 0.6247,2.74422 z"
         id="path4838" /><path
         style="display:inline;fill:#ffffff;fill-opacity:1;stroke:none;stroke-width:0.1;stroke-linejoin:round;stroke-dasharray:none"
         d="m 160.41391,153.36373 c 0,0 -1.11553,-1.51713 -1.20478,-2.65497 -0.0892,-1.13785 0.40159,-1.96334 1.56175,-2.38725 1.16016,-0.4239 2.63267,-0.44621 4.12748,0.31235 1.49482,0.75857 2.20151,2.04315 2.23306,2.37444 0.0316,0.3313 -0.0315,0.63104 0.0789,0.78881 0.11043,0.15776 1.81425,0.64681 2.65038,2.38218 0.83613,1.73536 0.89923,3.59694 0.50483,4.92212 -0.3944,1.32519 -1.73536,3.10789 -3.39185,3.99135 -1.65648,0.88345 -4.07022,1.1832 -5.52162,0.44172 -1.45139,-0.74147 -2.14554,-2.11399 -2.14554,-2.11399 0,0 -0.16564,-0.32341 -0.57582,-0.29974 -0.41018,0.0237 -1.43562,-0.17354 -2.18498,-0.91501 -0.74937,-0.74148 -0.75725,-2.01934 -0.75725,-2.01934 0,0 0.90712,0.1341 1.80635,-0.0473 0.89924,-0.18143 1.59338,-0.89135 1.59338,-0.89135 0,0 -0.0236,1.41196 0.90713,2.53994 0.93078,1.12799 2.00355,1.3883 3.56538,1.52239 1.56183,0.1341 3.26564,-0.99389 3.73104,-1.41196 0.46539,-0.41806 0.52849,-0.986 0.40228,-1.30941 -0.1262,-0.32341 -0.47327,-0.36284 -1.10432,-0.0394 -0.63104,0.32341 -1.5776,1.00178 -2.85546,1.14377 -1.27786,0.14198 -1.97201,-0.49695 -2.39796,-0.97812 -0.42595,-0.48117 -0.83153,-1.48187 -0.60738,-2.76869 0.21297,-1.22265 2.50839,-2.74504 2.50839,-2.74504 0,0 0.41807,-0.26819 0.25242,-0.69414 -0.16565,-0.42596 -1.14376,-0.26031 -1.83791,0.0158 -0.69415,0.27608 -1.33788,0.84092 -1.33788,0.84092 z"
         id="path4839"
         sodipodi:nodetypes="ccsscssssscsscscsssssssscsscc" /><path
         style="display:inline;fill:#ffffff;fill-opacity:1;stroke:none;stroke-width:0.1;stroke-linejoin:round;stroke-dasharray:none"
         d="m 157.69201,163.82745 c 0,0 2.05258,2.03027 5.68922,2.0972 3.63665,0.0669 5.86772,-1.98565 5.86772,-1.98565 0,0 0.31235,1.60637 -0.13387,2.43187 -0.44621,0.82549 -1.71792,1.89641 -4.23903,2.11951 -2.52111,0.22311 -4.596,-0.49083 -5.86771,-1.33864 -1.27171,-0.84781 -1.3498,-2.25338 -1.37211,-2.58804 -0.0223,-0.33466 0.0558,-0.73625 0.0558,-0.73625 z"
         id="path4840" /><path
         style="display:inline;fill:#fece18;fill-opacity:1;stroke:none;stroke-width:0.1;stroke-linejoin:round;stroke-dasharray:none"
         d="m 105.128,206.9094 c 3.59203,-0.17848 4.50676,-1.36095 5.10915,-1.94103 0.60239,-0.58008 0.66932,-2.45417 -0.0669,-3.36891 -0.73625,-0.91474 -2.63266,-2.34262 -4.95297,-2.27569 -2.32032,0.0669 -4.61832,0.66932 -5.845405,2.34262 -1.22709,1.6733 -0.356971,3.07887 0.156175,3.61433 0.51315,0.53546 1.85179,1.33864 2.98963,1.53944 1.13785,0.2008 2.61035,0.0892 2.61035,0.0892 z"
         id="path4824" /><path
         style="display:inline;fill:#fece18;fill-opacity:1;stroke:none;stroke-width:0.1;stroke-linejoin:round;stroke-dasharray:none"
         d="m 100.01885,198.49827 c 0,0 -0.602383,-1.80717 0.2008,-2.54342 0.80319,-0.73625 2.298,-1.47251 5.30995,-1.45019 3.01194,0.0223 4.61831,0.53545 5.55536,1.29402 0.93705,0.75856 0.73625,1.91872 0.64701,2.298 -0.0892,0.37928 -0.41275,1.0486 -0.41275,1.0486 0,0 -0.11155,0.11156 -0.26773,0.0558 -0.15617,-0.0558 -1.94103,-1.49482 -4.35058,-1.76255 -2.40956,-0.26773 -4.48445,0.29004 -5.2207,0.47968 -0.73626,0.18964 -1.46136,0.58008 -1.46136,0.58008 z"
         id="path4825" /><path
         style="display:inline;fill:#fece18;fill-opacity:1;stroke:none;stroke-width:0.1;stroke-linejoin:round;stroke-dasharray:none"
         d="m 137.48823,207.23413 c 3.51806,0.0631 5.25343,-0.96234 6.16844,-2.28753 0.91501,-1.32518 0.0631,-3.01322 -0.58372,-3.64427 -0.64681,-0.63104 -2.49261,-1.79846 -4.44884,-1.95622 -1.95623,-0.15776 -3.64427,0.17353 -5.2061,0.99389 -1.56183,0.82035 -2.00356,2.25597 -2.00356,3.4865 0,1.23053 1.58084,2.3161 2.47684,2.74504 1.48295,0.70991 3.59694,0.66259 3.59694,0.66259 z"
         id="path4826"
         sodipodi:nodetypes="cssssssc" /><path
         style="display:inline;fill:#fece18;fill-opacity:1;stroke:none;stroke-width:0.1;stroke-linejoin:round;stroke-dasharray:none"
         d="m 131.24092,198.92015 c 0,0 -0.7888,-1.24631 -0.59949,-2.27175 0.18931,-1.02544 1.02544,-1.49872 1.87735,-1.76692 0.85191,-0.26819 2.25597,-0.55216 4.4804,-0.67836 2.22442,-0.12621 4.68548,0.48905 5.75825,0.89923 1.07277,0.41018 1.56183,1.41984 1.48295,2.25597 -0.0789,0.83613 -0.31552,1.75114 -0.31552,1.75114 0,0 -1.37252,-0.915 -3.32875,-1.38829 -1.95623,-0.47328 -4.14909,-0.3944 -5.74247,-0.14198 -1.59338,0.25242 -2.9659,0.91501 -3.18677,1.04122 -0.22086,0.12621 -0.42595,0.29974 -0.42595,0.29974 z"
         id="path4827"
         sodipodi:nodetypes="cssssscsssc" /><path
         style="display:inline;fill:#fece18;fill-opacity:1;stroke:none;stroke-width:0.1;stroke-linejoin:round;stroke-dasharray:none"
         d="m 114.38694,185.29034 3.949,-0.11156 c 0,0 0.30781,-0.039 0.40246,0.10298 0.0947,0.14199 0.0158,0.35496 -0.0394,0.45751 -0.0552,0.10254 -1.19109,2.85546 -1.19109,2.85546 0,0 -0.11832,0.48906 0.071,0.58372 0.18932,0.0947 0.37074,0.0158 0.56794,-0.15776 0.1972,-0.17354 6.29464,-5.78193 6.29464,-5.78193 0,0 0.17354,-0.25241 0.0552,-0.44961 -0.11832,-0.1972 -0.48906,-0.14988 -0.70992,-0.14199 -0.22087,0.008 -4.33842,0.0631 -4.33842,0.0631 0,0 -0.0749,-0.0434 -0.067,-0.12621 0.008,-0.0828 2.46501,-3.92824 2.46501,-3.92824 0,0 0.0749,-0.25636 -0.0907,-0.35496 -0.16565,-0.0986 -0.69414,-0.0552 -0.69414,-0.0552 l -2.92252,0.0158 c 0,0 -0.43384,-0.0237 -0.72569,0.30763 -0.29186,0.33129 -3.5575,6.27098 -3.5575,6.27098 0,0 -0.0591,0.14987 0.13015,0.3234 0.15419,0.14136 0.40107,0.12687 0.40107,0.12687 z"
         id="path4828"
         sodipodi:nodetypes="ccsscsscsccccsccscscc" /><path
         style="display:inline;fill:#fece18;fill-opacity:1;stroke:none;stroke-width:0.1;stroke-linejoin:round;stroke-dasharray:none"
         d="m 94.151438,173.56805 1.340964,-30.19535 c 0,0 0,-1.67226 0.694145,-2.25598 0.694145,-0.58371 0.583713,-0.93078 2.934346,-1.05699 2.350627,-0.12621 4.717037,-0.26819 4.717037,-0.26819 l 1.30941,5.86868 c 0,0 0.34707,1.29364 1.37252,1.97201 1.02544,0.67837 2.17709,0.77303 3.23409,0.7257 1.05699,-0.0473 19.32565,-1.19898 19.32565,-1.19898 0,0 1.27786,-0.34707 2.01933,-1.04122 0.74148,-0.69415 1.1201,-1.92468 1.16743,-2.57149 0.0473,-0.64682 0.0789,-1.057 0.25242,-2.69771 0.17354,-1.64071 0.34707,-2.68193 0.34707,-2.68193 l 10.64883,-0.7257 c 0,0 0.77303,-0.0947 1.34097,0.63105 0.56793,0.72569 0.44173,1.27786 0.4575,1.9089 0.0158,0.63104 -0.70992,31.82028 -0.70992,31.82028 z"
         id="path4841" /><path
         style="display:inline;opacity:1;fill:#fdb800;fill-opacity:1;stroke-width:0.1;stroke-linejoin:round"
         d="m 146.60764,171.93723 c 0,0 1.45154,0.7282 2.18741,1.26563 0.73587,0.53744 1.2485,1.00046 1.2485,1.00046 l -0.15709,-8.25996 c 0,0 -1.43868,-1.53789 -1.93477,-3.5388 -0.49609,-2.00092 -0.81029,-4.7625 -0.44648,-7.59024 0.3638,-2.82773 2.06705,-5.68854 2.06705,-5.68854 l -0.1819,-9.40925 c 0,0 0.0579,-1.26503 -0.31419,-1.9761 -0.37207,-0.71107 -0.86816,-1.23197 -1.08314,-1.41387 -0.21497,-0.1819 -0.71389,-0.47081 -0.71389,-0.47081 0,0 0.20269,0.43852 0.22673,0.72972 0.0329,0.3982 -0.89823,35.35176 -0.89823,35.35176 z"
         id="path27"
         sodipodi:nodetypes="csccssccsscsc" /><path
         id="path34"
         style="display:inline;opacity:1;fill:#fdab00;fill-opacity:1;stroke:none;stroke-width:0.1;stroke-linejoin:round"
         d="m 137.36836,196.08932 c -2.71869,-0.0499 -5.48465,0.99145 -6.68021,1.50637 0.16749,0.71635 0.55293,1.32447 0.55293,1.32447 0,0 0.20496,-0.17352 0.42582,-0.29973 0.22087,-0.12621 1.5935,-0.78886 3.18688,-1.04128 1.59338,-0.25242 3.78606,-0.33117 5.74229,0.14211 1.95623,0.47329 3.329,1.38803 3.329,1.38803 0,0 0.20766,-0.80381 0.29868,-1.59318 -1.0118,-0.37816 -3.93898,-1.37323 -6.85539,-1.42679 z" /><path
         id="path35"
         style="display:inline;opacity:1;fill:#fdab00;fill-opacity:1;stroke:none;stroke-width:0.1;stroke-linejoin:round"
         d="m 106.56972,196.61746 c -1.74315,0.0794 -3.20498,0.64436 -4.05195,1.0542 1.01415,-0.2094 2.519,-0.41798 4.18321,-0.23307 2.40955,0.26773 4.19447,1.70689 4.35064,1.76269 0.15618,0.0558 0.26768,-0.0558 0.26768,-0.0558 0,0 0.31201,-0.64544 0.40773,-1.02785 -0.38439,-0.45447 -1.27415,-1.05063 -3.33261,-1.39371 -0.63121,-0.1052 -1.24365,-0.13293 -1.8247,-0.10645 z" /><ellipse
         style="display:inline;fill:#000000;fill-opacity:1;stroke:none;stroke-width:0.104205;stroke-linejoin:round;stroke-dasharray:none"
         id="path4842"
         cx="104.13768"
         cy="156.90854"
         rx="7.0834436"
         ry="7.5093975" /><ellipse
         style="display:inline;fill:#000000;fill-opacity:1;stroke:none;stroke-width:0.117811;stroke-linejoin:round;stroke-dasharray:none"
         id="path4843"
         cx="134.71165"
         cy="155.63069"
         rx="7.556726"
         ry="7.8722467" /><path
         style="display:inline;fill:#000000;fill-opacity:1;stroke:none;stroke-width:0.1;stroke-linejoin:round;stroke-dasharray:none"
         d="m 113.83994,158.95943 c 0,0 1.86157,1.68804 5.01678,1.4514 3.15521,-0.23664 5.23765,-2.2402 5.23765,-2.2402 0,0 0.67837,-0.56794 1.00967,-0.0158 0.33129,0.55216 1.32519,2.85547 1.04122,5.52162 -0.28397,2.66615 -1.1201,4.6697 -2.79236,5.86868 -1.67226,1.19899 -3.58116,1.59339 -6.15266,0.7257 -2.5715,-0.86768 -3.48651,-3.18676 -4.086,-4.73281 -0.59949,-1.54605 -0.47328,-4.51195 -0.34707,-5.2692 0.12621,-0.75725 0.35364,-1.38321 0.58233,-1.45572 0.22868,-0.0725 0.49044,0.14631 0.49044,0.14631 z"
         id="path4844" /><path
         style="display:inline;opacity:1;fill:#fece18;fill-opacity:1;stroke:none;stroke-width:0.1;stroke-linejoin:round;stroke-dasharray:none"
         d="m 102.26108,159.87845 c 1.28287,1.23825 1.82948,1.9745 2.14183,2.06374 0.31235,0.0892 0.59123,-0.24541 0.76972,-0.55776 0.17848,-0.31235 0.95936,-1.18247 1.3721,-1.5506 0.41275,-0.36812 0.5745,-0.58008 0.56893,-0.80318 -0.006,-0.22311 -0.24542,-0.34582 -0.49642,-0.3514 -0.25099,-0.006 -1.10438,-0.13386 -1.35537,-0.2733 -0.251,-0.13944 -0.74741,-0.95378 -0.83665,-1.13227 -0.0892,-0.17848 -0.31235,-0.31793 -0.59124,-0.20637 -0.27888,0.11155 -0.39043,0.24541 -0.61354,0.50199 -0.22311,0.25657 -0.47968,0.6749 -0.83107,0.95378 -0.3514,0.27888 -0.64701,0.50757 -0.63028,0.74741 0.0167,0.23984 0.50199,0.60796 0.50199,0.60796 z"
         id="path4845" /><path
         style="display:inline;opacity:1;fill:#fece18;fill-opacity:1;stroke:none;stroke-width:0.1;stroke-linejoin:round;stroke-dasharray:none"
         d="m 131.47756,159.43271 c 1.00967,0.59949 1.57761,1.04122 1.83002,1.32519 0.25242,0.28397 0.40043,0.42573 0.6068,0.44804 0.20638,0.0223 0.60797,-0.45179 0.80319,-0.75856 0.19521,-0.30677 0.97609,-1.36096 1.44461,-1.80159 0.46853,-0.44064 0.60239,-0.63586 0.56335,-0.95378 -0.0391,-0.31793 -0.31793,-0.34582 -0.63028,-0.31235 -0.31235,0.0335 -0.70836,-0.0781 -1.18247,-0.32351 -0.4741,-0.24542 -0.68047,-0.80318 -0.73625,-0.97051 -0.0558,-0.16733 -0.29004,-0.39044 -0.65816,-0.21753 -0.36813,0.1729 -0.39044,0.30119 -0.55777,0.53545 -0.16733,0.23427 -0.97052,1.29402 -1.4,1.71793 -0.42948,0.4239 -0.61912,0.64143 -0.59123,0.898 0.0279,0.25658 0.50819,0.41322 0.50819,0.41322 z"
         id="path4846" /><path
         style="display:inline;opacity:1;fill:#fece18;fill-opacity:1;stroke:none;stroke-width:0.1;stroke-linejoin:round;stroke-dasharray:none"
         d="m 109.5009,128.71041 4.48445,-0.46852 c 0,0 0.40159,-0.13387 0.53546,0.0558 0.13386,0.18964 -0.0669,1.22709 -0.0669,1.22709 l -1.01513,6.247 c 0,0 -0.0558,0.61354 0.18964,0.82549 0.24542,0.21195 0.73625,-0.7251 0.73625,-0.7251 l 6.22469,-11.45654 c 0,0 0.15617,-0.33466 0.0335,-0.55777 -0.12271,-0.2231 -0.49083,-0.20079 -1.00398,-0.11155 -0.51315,0.0892 -4.70756,0.49084 -4.70756,0.49084 0,0 -0.16175,0.0167 -0.24541,-0.12271 -0.0837,-0.13945 0.2733,-0.98725 0.2733,-0.98725 l 2.08048,-6.47568 c 0,0 0.0623,-0.24004 -0.0402,-0.49246 -0.10255,-0.25242 -0.4654,-0.21298 -0.7612,-0.16959 -0.2958,0.0434 -3.61666,0.39834 -3.61666,0.39834 0,0 -0.37862,-0.0237 -0.65865,0.55216 -0.28002,0.57583 -0.57977,1.8458 -0.57977,1.8458 l -2.5636,9.2211 c 0,0 -0.12621,0.37468 -0.0237,0.5916 0.10255,0.21692 0.72507,0.11198 0.72507,0.11198 z"
         id="path4847" /><path
         style="display:inline;opacity:1;fill:#fece18;fill-opacity:1;stroke:none;stroke-width:0.1;stroke-linejoin:round;stroke-dasharray:none"
         d="m 88.595778,164.28482 c -0.0223,-1.05976 -0.234262,-1.69561 -0.234262,-1.69561 0,0 -0.09482,-0.17849 -0.0056,-0.34024 0.08924,-0.16176 0.490833,-0.56893 0.948203,-1.37769 0.457369,-0.80876 0.647009,-2.34262 0.647009,-3.03983 0,-0.69721 0.02789,-1.02629 0.08924,-1.16574 0.06135,-0.13944 0.40717,-0.58007 0.40717,-0.58007 l -0.111554,6.33066 c 0,0 -0.105976,1.10995 -0.585655,1.70119 -0.479679,0.59123 -0.881271,0.74183 -0.881271,0.74183 0,0 -0.237628,0.0373 -0.248208,-0.0949 -0.01674,-0.20916 -0.0251,-0.47967 -0.0251,-0.47967 z"
         id="path4848"
         sodipodi:nodetypes="ccssssccscscc" /><path
         style="display:inline;opacity:1;fill:#fece18;fill-opacity:1;stroke:none;stroke-width:0.1;stroke-linejoin:round;stroke-dasharray:none"
         d="m 155.41631,165.00992 0.0223,-2.67729 c 0,0 -0.81434,-0.76972 -1.50598,-2.34262 -0.69163,-1.57291 -0.4239,-2.96733 -0.4239,-2.96733 l -1.18247,-1.69561 c 0,0 -0.44621,1.3498 -0.30119,3.69242 0.14502,2.34263 1.17098,4.51823 1.88525,5.27648 0.62053,0.65873 0.85996,0.65337 1.20985,0.72994 0.0837,0.006 0.29613,-0.016 0.29613,-0.016 z"
         id="path4849"
         sodipodi:nodetypes="ccsccssccc" /><path
         id="path54"
         style="display:inline;opacity:1;fill:#feb401;fill-opacity:1;stroke:none;stroke-width:0.1;stroke-linejoin:round"
         d="m 152.3261,155.32695 c 0,0 -0.001,0.005 -0.004,0.0134 0.0759,1.32832 0.32688,4.13629 1.1374,6.2575 0.68097,1.78213 1.25452,2.85526 1.59215,3.41374 0.0225,0.005 0.0453,0.009 0.0687,0.0145 0.0837,0.006 0.2961,-0.016 0.2961,-0.016 l 0.0222,-2.67735 c 0,0 -0.81421,-0.7696 -1.50585,-2.3425 -0.69163,-1.57291 -0.42374,-2.96777 -0.42374,-2.96777 z" /><path
         style="display:inline;opacity:1;fill:#474c56;fill-opacity:1;stroke-width:0.1;stroke-linejoin:round"
         d="m 80.931114,170.98078 c 0,0 0.631042,0.0158 1.561828,-0.0789 0.930788,-0.0947 1.751142,-0.53638 1.751142,-0.53638 0,0 0.299743,1.1201 0.993891,1.81424 0.694145,0.69415 0.993889,1.16743 1.214755,1.68804 0.220864,0.52061 -0.01577,1.5145 -0.331298,1.8458 -0.315521,0.33129 -1.246306,0.33129 -2.019334,-0.0158 -0.773025,-0.34707 -1.766917,-1.40407 -2.287527,-2.44529 -0.520607,-1.04122 -0.883457,-2.27175 -0.883457,-2.27175 z"
         id="path1" /><path
         style="display:inline;opacity:1;fill:#474c56;fill-opacity:1;stroke-width:0.1;stroke-linejoin:round"
         d="m 107.24752,143.4801 0.34582,1.6231 c 0,0 0.0892,0.43506 0.39602,0.73068 0.30677,0.29561 0.46852,0.33466 0.7976,0.36254 0.32908,0.0279 18.05245,-1.02525 18.05245,-1.02525 0,0 0.15776,0.0316 0.27608,-0.22875 0.11832,-0.26031 0.31189,-0.89496 0.53721,-1.79058 0.14649,-0.58228 0.17271,-1.14376 0.17271,-1.14376 z"
         id="path2"
         sodipodi:nodetypes="ccsscsscc" /><path
         style="display:inline;opacity:1;fill:#474c56;fill-opacity:1;stroke-width:0.1;stroke-linejoin:round"
         d="m 151.92332,141.10095 -0.004,6.7632 c 0,0 0.0335,0.1004 0.16176,0.12271 0.12828,0.0223 1.87967,-0.0948 2.16413,-0.0279 0.28447,0.0669 0.46295,0.11155 0.46295,0.11155 l -0.0725,-5.01433 c 0,0 -0.11155,-0.40717 -0.37928,-0.65816 -0.26773,-0.251 -2.33285,-1.29708 -2.33285,-1.29708 z"
         id="path3" /><path
         style="display:inline;opacity:1;fill:#424652;fill-opacity:1;stroke-width:0.1;stroke-linejoin:round"
         d="m 148.98897,157.36606 1.55394,0.7888 c 0,0 -0.0605,1.1745 0.21835,2.9482 0.27888,1.7737 1.3977,3.8957 1.3977,3.8957 0,0 -0.75857,0.2008 -1.33864,-0.4239 -0.58008,-0.6247 -1.59801,-2.8701 -1.75139,-4.49399 -0.15936,-1.68715 -0.08,-2.71481 -0.08,-2.71481 z"
         id="path4"
         sodipodi:nodetypes="ccscsscc" /><path
         style="display:inline;opacity:1;fill:#2f323c;fill-opacity:1;stroke-width:0.1;stroke-linejoin:round"
         d="m 152.42669,170.45373 -0.0335,-3.06772 c 0,0 0.61354,0.15617 1.43904,0.16733 0.8255,0.0112 1.42789,-0.18964 1.42789,-0.18964 v 2.68844 c 0,0 -0.79203,-0.2008 -1.53944,-0.1004 -0.74741,0.1004 -1.29402,0.50199 -1.29402,0.50199 z"
         id="path5" /><path
         style="display:inline;opacity:1;fill:#474c56;stroke-width:0.1;stroke-linejoin:round"
         d="m 160.33583,170.36449 c 0,0 0.75856,0.23426 1.71792,0.4239 0.95936,0.18964 1.68446,0.12271 1.68446,0.12271 0,0 -0.56892,2.71075 -1.74023,3.87091 -1.17132,1.16015 -2.03028,1.56174 -2.97848,1.58405 -0.94821,0.0223 -1.33864,-0.89242 -1.3498,-1.4725 -0.0112,-0.58008 0.18964,-1.2494 0.83665,-1.7737 0.64701,-0.5243 1.2494,-1.47251 1.47251,-1.90757 0.22311,-0.43505 0.35697,-0.8478 0.35697,-0.8478 z"
         id="path6" /><ellipse
         style="display:inline;opacity:1;fill:#474c56;stroke-width:0.1;stroke-linejoin:round"
         id="path7"
         cx="98.66906"
         cy="180.70551"
         rx="3.4246919"
         ry="3.3131385" /><ellipse
         style="display:inline;opacity:1;fill:#474c56;stroke-width:0.103938;stroke-linejoin:round"
         id="path8"
         cx="139.3526"
         cy="179.75729"
         rx="3.4358473"
         ry="3.3242939" /><path
         style="display:inline;opacity:1;fill:#2f323c;fill-opacity:1;stroke-width:0.1;stroke-linejoin:round"
         d="m 105.89772,187.97879 c 0,0 0.6024,-0.74742 1.17132,-1.30518 0.56892,-0.55777 1.43904,-1.16016 1.43904,-1.16016 0,0 0.46852,-1.29402 0.82549,-2.09721 0.35697,-0.80318 0.7251,-1.4725 0.7251,-1.4725 l 4.28366,-0.0223 1.95218,-3.55856 c 0,0 -4.50382,0.6064 -6.80476,2.78884 -2.5992,2.46533 -3.59203,6.82707 -3.59203,6.82707 z"
         id="path9"
         sodipodi:nodetypes="cscscccsc" /><path
         style="display:inline;opacity:1;fill:#2f323c;fill-opacity:1;stroke-width:0.1;stroke-linejoin:round"
         d="m 122.8954,178.44285 -1.79847,3.20254 6.53128,-0.0158 c 0,0 0.79669,1.33308 1.19898,2.16132 0.40229,0.82824 0.56794,1.26208 0.56794,1.26208 0,0 0.58371,0.44173 1.1201,0.69415 0.53638,0.25241 1.11221,0.29974 1.11221,0.29974 0,0 -1.03549,-2.79976 -3.24053,-4.87288 -2.61036,-2.45418 -5.49151,-2.73117 -5.49151,-2.73117 z"
         id="path10"
         sodipodi:nodetypes="cccscscscc" /><path
         style="display:inline;opacity:1;fill:#666a73;fill-opacity:1;stroke-width:0.1;stroke-linejoin:round"
         d="m 132.73941,133.51115 2.40877,-0.11693 -5.26187,-18.26453 c 0,0 -0.1578,-0.58164 -0.60428,-1.00332 -0.44648,-0.42168 -2.05879,-1.23197 -2.05879,-1.23197 z"
         id="path26" /><path
         style="display:inline;opacity:1;fill:#484d57;fill-opacity:1;stroke-width:0.1;stroke-linejoin:round"
         d="m 105.868,188.14758 c 0.21247,-0.23621 0.858,-0.95109 1.45582,-1.53948 0.44359,-0.43659 1.15827,-0.95948 1.16884,-0.94676 0,0 -1.06568,2.43645 -1.14456,3.07538 -0.0789,0.63893 -0.0473,1.01756 0.62316,1.09644 0.67048,0.0789 8.86614,-0.14988 8.86614,-0.14988 0,0 0.19719,0.47329 0.8519,0.48906 0.65471,0.0158 1.19109,-0.53638 1.19109,-0.53638 l 11.21677,-0.14199 c 0,0 0.41018,0.0158 0.62316,-0.24453 0.21297,-0.2603 0.25241,-0.63104 -0.008,-1.10432 -0.2603,-0.47328 -1.09843,-2.70976 -1.09843,-2.70976 0,0 0.35159,0.32561 1.05438,0.55988 0.70278,0.23426 1.00322,0.19392 1.00322,0.19392 0,0 1.17745,2.09082 1.07706,3.16173 -0.1004,1.07092 -0.27889,1.59522 -1.88526,1.61753 -1.60637,0.0223 -24.15133,0.4239 -24.15133,0.4239 0,0 -0.45756,0.01 -0.9989,-0.79194 -0.36817,-0.5451 -0.16387,-1.50593 -0.16387,-1.50593 z"
         id="path11"
         sodipodi:nodetypes="csssscsccsccscsscscc" /><path
         style="display:inline;opacity:1;fill:#50555f;fill-opacity:1;stroke-width:0.1;stroke-linejoin:round"
         d="m 135.18325,189.06479 c 0,0 0.16371,0.74835 0.28064,1.19269 0.11693,0.44434 0.19878,0.64312 0.19878,0.64312 l 12.83896,-0.25725 c 0,0 -0.0234,-0.18124 -0.34495,-0.46772 -0.32155,-0.28648 -1.86504,-1.25115 -1.86504,-1.25115 z"
         id="path12" /><path
         style="display:inline;opacity:1;fill:#575a64;fill-opacity:1;stroke-width:0.1;stroke-linejoin:round"
         d="m 148.0456,193.42629 c 0,0 0.76005,-0.0351 1.64872,-0.19878 0.88867,-0.1637 1.3447,-0.58465 1.3447,-0.58465 0,0 1.12253,0.77174 1.61364,1.21608 0.49111,0.44433 0.78343,0.80682 0.78343,0.80682 0,0 -0.60804,0.26894 -1.61364,0.42095 -1.0056,0.15201 -1.64872,0 -1.64872,0 0,0 -0.8302,-0.46772 -1.35639,-0.91206 -0.52619,-0.44434 -0.77174,-0.74836 -0.77174,-0.74836 z"
         id="path13" /><path
         style="display:inline;opacity:1;fill:#5c6169;fill-opacity:1;stroke-width:0.1;stroke-linejoin:round"
         d="m 146.45535,185.79658 -0.0117,-11.93859 c 0,0 1.6078,0.95883 2.32107,1.46748 0.71328,0.50864 1.33886,1.09914 1.33886,1.09914 l 0.14031,12.39463 z"
         id="path14" /><path
         style="display:inline;opacity:1;fill:#5c6169;fill-opacity:1;stroke-width:0.1;stroke-linejoin:round"
         d="m 152.53229,190.28502 c 0,0 0.14883,-1.73632 0.14883,-2.92695 0,-1.19062 -0.0827,-5.93659 -0.0827,-5.93659 0,0 0.76067,0.56224 1.4552,0.92604 0.69454,0.36381 1.35599,0.36381 1.35599,0.36381 l 0.0844,9.95492 z"
         id="path15" /><path
         style="display:inline;opacity:1;fill:#484d57;fill-opacity:1;stroke-width:0.1;stroke-linejoin:round"
         d="m 156.84004,170.16015 c -0.4961,-0.0413 -0.91778,-0.12402 -0.95912,-0.28938 -0.0413,-0.16537 -0.16536,-1.18236 -0.2067,-1.81075 -0.0413,-0.62838 0.0496,-1.0666 0.27285,-0.8847 0.22324,0.1819 0.79375,1.05007 1.08314,1.31465 0.28938,0.26459 0.9095,0.71934 0.9095,0.71934 0,0 0.008,0.50436 -0.0496,0.7028 -0.0579,0.19843 -0.1819,0.3638 -0.1819,0.3638 z"
         id="path16" /><path
         style="display:inline;opacity:1;fill:#8a8c93;fill-opacity:1;stroke-width:0.1;stroke-linejoin:round"
         d="m 93.745181,189.72278 9.442319,-0.0331 c 0,0 0,0.47956 0.0331,0.87643 0.0331,0.39688 0.1819,0.87644 0.1819,0.87644 l -7.061065,0.0165 c 0,0 -0.223242,0.0744 -0.719336,-0.17363 -0.496094,-0.24805 -1.876888,-1.5627 -1.876888,-1.5627 z"
         id="path22" /><path
         style="display:inline;opacity:1;fill:#878b92;fill-opacity:1;stroke-width:0.1;stroke-linejoin:round"
         d="m 106.9082,141.75879 0.32246,1.6123 20.62923,-1.47174 0.20671,-1.67019 c 0,0 -0.004,-0.12898 -0.1915,-0.12021 -0.18708,0.009 -20.9669,1.64984 -20.9669,1.64984 z"
         id="path23" /><path
         style="display:inline;opacity:1;fill:#7f828a;fill-opacity:1;stroke-width:0.1;stroke-linejoin:round"
         d="m 97.777214,116.31069 c 0,0 0.28648,0.36833 0.771742,0.44433 0.485259,0.076 0.999755,-0.0994 0.999755,-0.0994 0,0 -0.01577,0.47624 0.0173,0.75736 0.03307,0.28112 8.276499,22.32008 8.276499,22.32008 0,0 -1.02526,0.11576 -1.57923,-0.44648 -0.55397,-0.56224 -8.3516,-21.40319 -8.3516,-21.40319 0,0 -0.152008,-0.35664 -0.157855,-0.78344 -0.0058,-0.42679 0.02339,-0.78927 0.02339,-0.78927 z"
         id="path24" /><path
         style="display:inline;opacity:1;fill:#7f828a;fill-opacity:1;stroke-width:0.1;stroke-linejoin:round"
         d="m 129.64583,137.88099 1.02526,-0.008 c 0,0 0.30593,-0.12402 0.31419,-0.47129 0.008,-0.34726 -0.0909,-1.21543 -0.27285,-1.9513 -0.1819,-0.73588 -2.72024,-10.19474 -2.72024,-10.19474 l -1.82728,-0.42995 z"
         id="path25" /><path
         style="display:inline;opacity:1;fill:#666a73;fill-opacity:1;stroke-width:0.1;stroke-linejoin:round"
         d="m 128.10897,196.15077 c 0,0 0.11692,-0.53788 0.25724,-0.94713 0.14032,-0.40926 0.44434,-0.87698 0.44434,-0.87698 l -14.23043,0.1754 c 0,0 0.58465,0.68988 1.25115,1.13422 0.6665,0.44434 0.99391,0.49111 1.35639,0.58465 0.36249,0.0935 10.92131,-0.0702 10.92131,-0.0702 z"
         id="path17" /><path
         style="opacity:1;fill:#666a73;fill-opacity:1;stroke-width:0.1;stroke-linejoin:round"
         d="m 150.34948,158.05547 -1.35393,-0.68627 c 0,0 -0.0495,-1.86344 0.3129,-3.57062 0.36248,-1.70719 1.06406,-2.82972 1.28623,-3.08696 0.22217,-0.25725 0.43265,-0.44434 0.86529,-0.46773 0.43264,-0.0234 0.56126,0.0585 0.56126,0.0585 0,0 -0.92375,2.36199 -1.23946,3.99902 -0.31571,1.63702 -0.24005,3.85538 -0.24005,3.85538 z"
         id="path18"
         sodipodi:nodetypes="ccssscscc" /><path
         style="display:inline;opacity:1;fill:#666a73;fill-opacity:1;stroke-width:0.1;stroke-linejoin:round"
         d="m 91.556516,187.00682 1.520095,-0.0234 c 0,0 0.631425,1.13422 0.900364,1.53179 0.268941,0.39756 0.865285,0.97052 0.865285,0.97052 h -1.297927 c 0,0 -0.678196,-0.81852 -1.192691,-1.40317 -0.514493,-0.58465 -0.795126,-1.07576 -0.795126,-1.07576 z"
         id="path19" /><path
         style="opacity:1;fill:#787b85;fill-opacity:1;stroke-width:0.1;stroke-linejoin:round"
         d="m 85.543098,179.00716 1.570963,0.89297 c 0,0 0.248047,0.13229 0.636654,-0.0744 0.388607,-0.2067 1.654281,-1.7173 1.876449,-3.26078 0.222168,-1.54348 0.140316,-3.44945 0.140316,-3.44945 l -1.777341,-0.0234 c 0,0 0.421792,2.1161 -0.09355,3.44945 -0.736661,1.90597 -2.353495,2.46562 -2.353495,2.46562 z"
         id="path20"
         sodipodi:nodetypes="ccssccscc" /><path
         style="opacity:1;fill:#7c7f87;fill-opacity:1;stroke-width:0.1;stroke-linejoin:round"
         d="m 156.25299,172.49179 c 0,0 -0.61185,-0.0827 -1.2237,-0.19843 -0.61184,-0.11576 -0.84335,-0.23151 -0.84335,-0.23151 0,0 -0.77722,1.96784 -0.57878,4.24987 0.19844,2.28203 1.9513,3.63802 2.38125,3.7207 0.42995,0.0827 1.75286,-0.35553 1.97611,-0.43822 0.22324,-0.0827 0.38033,-0.2067 0.38033,-0.2067 0,0 -1.8101,-0.60089 -2.4883,-2.37824 -0.67819,-1.77734 -0.19293,-3.21558 4e-5,-3.73007 0.16162,-0.4309 0.39644,-0.7874 0.39644,-0.7874 z"
         id="path21"
         sodipodi:nodetypes="cscssscsscc" /><ellipse
         style="opacity:1;fill:#ffffff;fill-opacity:1;stroke:none;stroke-width:0.10466;stroke-linejoin:round"
         id="path30"
         cx="136.60768"
         cy="153.26817"
         rx="2.4639323"
         ry="2.5383463" /><ellipse
         style="fill:#ffffff;fill-opacity:1;stroke:none;stroke-width:0.100516;stroke-linejoin:round"
         id="path30-2"
         cx="106.75938"
         cy="154.75644"
         rx="2.3812499"
         ry="2.422591" /><path
         style="opacity:1;fill:#f17352;fill-opacity:1;stroke:none;stroke-width:0.1;stroke-linejoin:round"
         d="m 115.59741,167.14034 c 0,0 1.80072,-2.82972 4.20949,-2.97004 2.40877,-0.14031 4.49013,1.66042 4.49013,1.66042 0,0 -0.8419,2.94664 -3.95224,3.39098 -3.11035,0.44433 -4.74738,-2.08136 -4.74738,-2.08136 z"
         id="path31"
         sodipodi:nodetypes="cscsc" /><ellipse
         style="opacity:1;fill:#f89315;fill-opacity:1;stroke:none;stroke-width:0.104179;stroke-linejoin:round"
         id="path32"
         cx="108.43995"
         cy="189.35985"
         rx="4.273428"
         ry="2.6707742"
         transform="matrix(0.98209965,-0.1883621,0.17358709,0.98481851,0,0)" /><ellipse
         style="opacity:1;fill:#f89315;fill-opacity:1;stroke:none;stroke-width:0.104179;stroke-linejoin:round"
         id="path32-8"
         cx="130.24796"
         cy="146.70496"
         rx="4.273428"
         ry="2.6707742"
         transform="matrix(0.98411541,0.17752993,-0.19229393,0.98133739,0,0)"
         inkscape:transform-center-x="-0.13229166"
         inkscape:transform-center-y="-0.033072922" /><ellipse
         style="opacity:1;fill:#fdeba8;fill-opacity:1;stroke:none;stroke-width:0.138391;stroke-linejoin:round"
         id="path33"
         cx="92.083916"
         cy="209.55199"
         rx="1.8951294"
         ry="1.4287336"
         transform="matrix(0.99726599,-0.07389563,0.05044034,0.99872707,0,0)"
         inkscape:transform-center-x="0.91702082"
         inkscape:transform-center-y="0.26739518" /><ellipse
         style="fill:#fdeba8;fill-opacity:1;stroke:none;stroke-width:0.138391;stroke-linejoin:round"
         id="path33-6"
         cx="125.14518"
         cy="212.14442"
         rx="1.8951294"
         ry="1.4287336"
         transform="matrix(0.99726599,-0.07389563,0.05044034,0.99872707,0,0)"
         inkscape:transform-center-x="0.91702082"
         inkscape:transform-center-y="0.26739518" /><path
         style="opacity:1;fill:#fdab00;fill-opacity:1;stroke:none;stroke-width:0.1;stroke-linejoin:round"
         d="m 82.330707,187.34591 c 0.935442,-0.8302 2.057974,-1.69549 1.543481,-2.54908 -0.514495,-0.85359 -1.555176,-0.15201 -2.432153,0.44434 -0.876977,0.59634 -2.186599,1.44993 -2.139826,1.95273 0.04677,0.50281 0.514493,0.91206 0.514493,0.91206 0,0 0.53788,0.6665 1.251157,0.31571 0.713274,-0.35079 1.262848,-1.07576 1.262848,-1.07576 z"
         id="path36" /><path
         style="opacity:1;fill:#fdab00;fill-opacity:1;stroke:none;stroke-width:0.1;stroke-linejoin:round"
         d="m 71.245703,182.06066 c 0.479414,0.61973 0.491109,0.8302 1.251156,0.73666 0.760047,-0.0936 3.800237,-2.72448 3.928861,-3.0285 0.128625,-0.30402 -0.619731,-1.20438 -1.262848,-1.09914 -0.643117,0.10523 -4.139337,1.98781 -4.139337,1.98781 0,0 -0.315712,0.24556 -0.257247,0.63143 0.05846,0.38587 0.479415,0.77174 0.479415,0.77174 z"
         id="path37" /><path
         style="opacity:1;fill:#fdab00;fill-opacity:1;stroke:none;stroke-width:0.1;stroke-linejoin:round"
         d="m 68.486146,174.69404 c 0,0 0.292325,0.78344 0.514493,0.86529 0.222168,0.0819 2.57247,-0.80682 3.028498,-1.08745 0.456027,-0.28064 0.245554,-1.29793 -0.385871,-1.46164 -0.631423,-0.1637 -2.99342,0.5145 -2.99342,0.5145 0,0 -0.339097,0.22217 -0.327403,0.51449 0.01169,0.29233 0.163703,0.65481 0.163703,0.65481 z"
         id="path38" /><path
         style="opacity:1;fill:#fdab00;fill-opacity:1;stroke:none;stroke-width:0.1;stroke-linejoin:round"
         d="m 66.030606,164.31062 0.339098,1.06407 c 0,0 0.175395,0.52619 0.923751,0.37417 0.748355,-0.152 2.888181,-1.42655 2.888181,-1.42655 0,0 0.491109,-0.3274 0.280633,-0.85359 -0.210474,-0.52618 -0.526188,-0.58465 -1.11084,-0.5028 -0.58465,0.0819 -2.829716,0.46772 -2.829716,0.46772 0,0 -0.304017,0.14032 -0.479415,0.35079 -0.175395,0.21048 -0.01169,0.52619 -0.01169,0.52619 z"
         id="path39" /><path
         style="opacity:1;fill:#fdab00;fill-opacity:1;stroke:none;stroke-width:0.1;stroke-linejoin:round"
         d="m 66.135844,154.12598 -0.09355,0.91206 c 0,0 -0.05846,0.44434 0.339098,0.54957 0.397566,0.10524 2.280145,0.1754 2.280145,0.1754 0,0 0.795126,0.12862 0.912056,-0.45603 0.116932,-0.58465 0.116932,-0.95883 -0.58465,-1.21608 -0.701585,-0.25724 -2.256758,-0.58465 -2.256758,-0.58465 0,0 -0.374177,0 -0.502801,0.1754 -0.128625,0.17539 -0.09354,0.44433 -0.09354,0.44433 z"
         id="path40" /><path
         style="opacity:1;fill:#fdab00;fill-opacity:1;stroke:none;stroke-width:0.1;stroke-linejoin:round"
         d="m 68.883709,147.56618 c 0,0 -0.362484,0.6899 -0.514495,1.05238 -0.152009,0.36248 0.02339,0.6665 0.374179,0.78343 0.350789,0.11693 1.204383,0.0351 2.093052,0.24556 0.888672,0.21047 1.80073,0.5028 2.128134,-0.14032 0.327406,-0.64312 -0.268939,-1.20438 -1.403165,-1.60195 -1.134224,-0.39756 -1.753955,-0.68988 -2.116439,-0.63142 -0.362484,0.0585 -0.561266,0.29232 -0.561266,0.29232 z"
         id="path41" /><path
         style="opacity:1;fill:#fdab00;fill-opacity:1;stroke:none;stroke-width:0.1;stroke-linejoin:round"
         d="m 73.876637,139.36936 c 0,0 -0.409257,0.63143 -0.561266,1.04068 -0.152008,0.40926 -0.09354,0.58466 0.245555,0.86529 0.339098,0.28063 4.291346,1.92935 4.291346,1.92935 0,0 0.724969,0.39757 1.239461,-0.0351 0.514493,-0.43264 -0.152008,-1.28623 -0.654809,-1.69549 -0.502801,-0.40926 -3.507912,-2.16321 -3.507912,-2.16321 0,0 -0.304112,-0.25582 -0.560427,-0.21862 -0.256315,0.0372 -0.491948,0.27708 -0.491948,0.27708 z"
         id="path42" /><path
         style="opacity:1;fill:#fdab00;fill-opacity:1;stroke:none;stroke-width:0.1;stroke-linejoin:round"
         d="m 72.309769,128.95086 15.364656,9.96247 c 0,0 0.671603,0.51382 1.167696,0.0839 0.496094,-0.42995 -0.28112,-1.61231 -0.28112,-1.61231 l -2.339908,-3.75377 c 0,0 -0.206706,-0.27285 -0.01654,-0.4961 0.190169,-0.22324 1.347722,-0.26458 1.347722,-0.26458 l 5.399153,-0.26458 c 0,0 0.496094,-0.0496 0.553971,-0.52917 0.05788,-0.47956 -0.835091,-1.15755 -0.835091,-1.15755 L 79.036002,120.8567 c 0,0 -0.636654,-0.42168 -1.07487,0.24805 -0.438216,0.66973 0.214974,1.43867 0.214974,1.43867 0,0 2.488737,3.64629 2.943489,4.54753 0.454753,0.90124 0.7028,1.4056 0.380339,1.44694 -0.322461,0.0413 -1.976107,-0.19017 -1.976107,-0.19017 l -6.788216,-0.76895 c 0,0 -0.752409,0.0827 -0.8847,0.54571 -0.132292,0.46302 0.458858,0.82638 0.458858,0.82638 z"
         id="path43" /><path
         style="opacity:1;fill:#fdab00;fill-opacity:1;stroke:none;stroke-width:0.1;stroke-linejoin:round"
         d="m 86.049092,117.40983 c 0,0 2.256759,3.85871 3.122044,4.876 0.865285,1.01729 0.92375,1.22777 1.835806,0.99391 0.912059,-0.23386 -0.04677,-2.15152 -0.04677,-2.15152 l -2.666013,-5.26187 c 0,0 -0.479417,-0.61973 -1.368087,-0.1637 -0.888672,0.45603 -1.11084,0.76004 -1.122532,1.09914 -0.01169,0.3391 0.245552,0.60804 0.245552,0.60804 z"
         id="path44" /><path
         style="opacity:1;fill:#fdab00;fill-opacity:1;stroke:none;stroke-width:0.1;stroke-linejoin:round"
         d="m 143.19299,112.62738 c 0,0 -1.37978,4.8643 -1.44994,6.05699 -0.0702,1.19269 0.37418,1.3564 0.86529,1.42655 0.4911,0.0702 1.14591,-1.09914 1.47332,-1.87088 0.32741,-0.77174 2.12813,-5.75298 2.12813,-5.75298 0,0 0,-0.93544 -0.81851,-0.88867 -0.81851,0.0468 -1.80073,0.1637 -1.98782,0.42095 -0.18709,0.25725 -0.21047,0.60804 -0.21047,0.60804 z"
         id="path45" /><path
         style="opacity:1;fill:#fdab00;fill-opacity:1;stroke:none;stroke-width:0.1;stroke-linejoin:round"
         d="m 141.91845,126.06268 -0.80682,3.1922 c 0,0 -0.16371,0.78344 0.60804,0.98222 0.77174,0.19878 1.12253,-0.93545 1.12253,-0.93545 l 1.3447,-2.72447 c 0,0 0.12862,-0.71328 -0.5028,-0.86529 -0.63143,-0.15201 -1.25116,-0.21047 -1.5201,-0.0468 -0.26894,0.1637 -0.24555,0.39756 -0.24555,0.39756 z"
         id="path46" /><path
         style="opacity:1;fill:#fdab00;fill-opacity:1;stroke:none;stroke-width:0.1;stroke-linejoin:round"
         d="m 148.03437,122.70052 4.61367,1.52135 c 0,0 0.41342,0.1323 0.39688,0.36381 -0.0165,0.23151 -0.82682,1.22369 -0.82682,1.22369 l -3.24115,4.18373 c 0,0 -0.41341,0.71933 0.16537,1.13274 0.57877,0.41342 1.38079,-0.33072 1.38079,-0.33072 l 11.22826,-8.40879 c 0,0 0.43821,-0.40515 0.33072,-0.95085 -0.10748,-0.5457 -1.47174,-0.59531 -1.47174,-0.59531 l -4.72116,-1.09141 c 0,0 -0.28939,-0.0496 -0.23151,-0.33073 0.0579,-0.28112 3.83646,-5.87871 3.83646,-5.87871 0,0 0.30592,-0.77721 -0.25632,-1.09967 -0.56224,-0.32246 -0.9095,-0.14883 -1.4552,0.23151 -0.54571,0.38034 -10.13685,8.81393 -10.13685,8.81393 0,0 -0.28112,0.31419 -0.20671,0.66973 0.0744,0.35553 0.59531,0.5457 0.59531,0.5457 z"
         id="path47" /><path
         style="opacity:1;fill:#fdab00;fill-opacity:1;stroke:none;stroke-width:0.1;stroke-linejoin:round"
         d="m 169.34987,126.91732 -12.48503,4.0845 c 0,0 -0.95084,0.23978 -0.91777,0.8847 0.0331,0.64492 1.84381,0.96738 1.84381,0.96738 l 4.50619,1.77767 -4.12585,3.24942 c 0,0 -0.42168,0.50436 0.0165,0.95084 0.43821,0.44649 2.54661,-0.16536 2.54661,-0.16536 l 12.71654,-3.10059 c 0,0 0.48782,-0.16536 0.57051,-0.73587 0.0827,-0.57051 -1.77767,-0.94258 -1.77767,-0.94258 0,0 -4.30775,-1.13274 -4.91133,-1.38906 -0.60358,-0.25631 -0.81855,-0.39687 -0.62012,-0.62838 0.19844,-0.23152 2.90215,-2.50528 3.6711,-3.10886 0.76894,-0.60358 1.28984,-0.90124 1.00872,-1.60404 -0.28112,-0.70279 -1.15755,-0.49609 -1.15755,-0.49609 z"
         id="path48" /><path
         style="opacity:1;fill:#fdab00;fill-opacity:1;stroke:none;stroke-width:0.1;stroke-linejoin:round"
         d="m 170.34423,140.73745 c 0,0 -1.73057,0.77174 -2.64263,1.46163 -0.91205,0.68989 -0.43264,1.15761 -0.29232,1.36809 0.14032,0.21047 0.90036,0.0819 1.36808,0.0117 0.46772,-0.0702 2.79464,-0.78343 2.79464,-0.78343 0,0 0.51449,-0.0585 0.3391,-0.79513 -0.1754,-0.73666 -0.6782,-1.29793 -1.02899,-1.33301 -0.35079,-0.0351 -0.53788,0.0702 -0.53788,0.0702 z"
         id="path49" /><path
         style="opacity:1;fill:#fdab00;fill-opacity:1;stroke:none;stroke-width:0.1;stroke-linejoin:round"
         d="m 174.95129,146.22149 -2.91157,1.44993 c 0,0 -0.59634,0.45603 -0.29233,1.12253 0.30402,0.66651 1.29793,0.38588 1.29793,0.38588 l 3.06358,-0.73667 c 0,0 0.56127,-0.22216 0.45603,-0.74835 -0.10524,-0.52619 -0.52619,-1.30962 -0.52619,-1.30962 0,0 -0.24555,-0.35079 -0.56126,-0.30402 -0.31572,0.0468 -0.52619,0.14032 -0.52619,0.14032 z"
         id="path50" /><path
         style="opacity:1;fill:#fdab00;fill-opacity:1;stroke:none;stroke-width:0.1;stroke-linejoin:round"
         d="m 174.65807,172.93828 -2.20762,-0.45475 c 0,0 -0.95084,-0.1819 -1.14101,0.51263 -0.19017,0.69453 0.33073,1.04179 0.74414,1.24023 0.41341,0.19844 2.02571,0.78548 2.02571,0.78548 0,0 0.42168,0.1819 0.65319,-0.29765 0.23152,-0.47956 0.34727,-1.05834 0.34727,-1.05834 0,0 0.0331,-0.33899 -0.0992,-0.52916 -0.13229,-0.19017 -0.32246,-0.19844 -0.32246,-0.19844 z"
         id="path51" /><path
         style="opacity:1;fill:#fdab00;fill-opacity:1;stroke:none;stroke-width:0.1;stroke-linejoin:round"
         d="m 172.97516,180.3067 -3.74177,-1.98781 c 0,0 -0.53788,-0.23386 -1.0056,0.0935 -0.46772,0.3274 -0.64312,0.93544 -0.51449,1.30962 0.12862,0.37418 3.47283,2.49062 3.47283,2.49062 0,0 0.51449,0.44433 0.97052,0.23386 0.45603,-0.21048 1.08746,-1.43825 1.08746,-1.43825 0,0 0.12412,-0.26066 0.0662,-0.40122 -0.0579,-0.14056 -0.33519,-0.30036 -0.33519,-0.30036 z"
         id="path52" /><path
         style="opacity:1;fill:#fdab00;fill-opacity:1;stroke:none;stroke-width:0.1;stroke-linejoin:round"
         d="m 167.37376,186.78756 -2.86081,-2.07532 c 0,0 -0.47129,-0.50436 -1.13274,-0.0496 -0.66146,0.45475 -0.1819,1.2485 -0.008,1.48828 0.17363,0.23978 2.43086,2.42259 2.43086,2.42259 0,0 0.43822,0.3638 0.76068,0.27285 0.32246,-0.0909 1.02526,-1.17409 1.02526,-1.17409 0,0 0.11575,-0.28938 0.0579,-0.51263 -0.0579,-0.22324 -0.27286,-0.37207 -0.27286,-0.37207 z"
         id="path53" /></g></g></svg>
